<svg width="27" height="30" viewBox="0 0 27 30" fill="none" xmlns="http://www.w3.org/2000/svg">
<path fill-rule="evenodd" clip-rule="evenodd" d="M14.78 0C6.61723 0 0 6.61723 0 14.78C0 22.9428 6.61723 29.56 14.78 29.56C19.8596 29.56 24.3406 26.9976 27.0011 23.0948L25.8774 19.8912C25.522 18.8778 24.4296 18.326 23.403 18.6413L19.0277 19.985C16.9566 20.621 15.4938 17.9696 17.1364 16.5568L21.1824 13.0767C21.9128 12.4485 22.0915 11.3888 21.6075 10.5558L18.8632 5.83196C17.8324 4.05771 19.8229 2.06718 21.5972 3.09794L26.321 5.84229C26.4348 5.90842 26.5529 5.96218 26.6735 6.00385C23.9816 2.36175 19.6566 0 14.78 0Z" fill="white"/>
</svg>
