<svg width="62" height="62" viewBox="0 0 62 62" fill="none" xmlns="http://www.w3.org/2000/svg">
<g filter="url(#filter0_d_212_96)">
<rect x="6" y="6" width="50" height="50" rx="25" fill="white"/>
<path d="M21 30C20.4477 30 20 30.4477 20 31C20 31.5523 20.4477 32 21 32V30ZM41.7071 31.7071C42.0976 31.3166 42.0976 30.6834 41.7071 30.2929L35.3431 23.9289C34.9526 23.5384 34.3195 23.5384 33.9289 23.9289C33.5384 24.3195 33.5384 24.9526 33.9289 25.3431L39.5858 31L33.9289 36.6569C33.5384 37.0474 33.5384 37.6805 33.9289 38.0711C34.3195 38.4616 34.9526 38.4616 35.3431 38.0711L41.7071 31.7071ZM21 32H41V30H21V32Z" fill="#1A1A1D"/>
</g>
<defs>
<filter id="filter0_d_212_96" x="0" y="0" width="62" height="62" filterUnits="userSpaceOnUse" color-interpolation-filters="sRGB">
<feFlood flood-opacity="0" result="BackgroundImageFix"/>
<feColorMatrix in="SourceAlpha" type="matrix" values="0 0 0 0 0 0 0 0 0 0 0 0 0 0 0 0 0 0 127 0" result="hardAlpha"/>
<feOffset/>
<feGaussianBlur stdDeviation="3"/>
<feComposite in2="hardAlpha" operator="out"/>
<feColorMatrix type="matrix" values="0 0 0 0 0 0 0 0 0 0 0 0 0 0 0 0 0 0 0.29 0"/>
<feBlend mode="normal" in2="BackgroundImageFix" result="effect1_dropShadow_212_96"/>
<feBlend mode="normal" in="SourceGraphic" in2="effect1_dropShadow_212_96" result="shape"/>
</filter>
</defs>
</svg>
