<?xml version="1.0" standalone="no"?>
<!DOCTYPE svg PUBLIC "-//W3C//DTD SVG 20010904//EN"
 "http://www.w3.org/TR/2001/REC-SVG-20010904/DTD/svg10.dtd">
<svg version="1.0" xmlns="http://www.w3.org/2000/svg"
 width="960.000000pt" height="960.000000pt" viewBox="0 0 960.000000 960.000000"
 preserveAspectRatio="xMidYMid meet">
<metadata>
Created by potrace 1.14, written by Peter Selinger 2001-2017
</metadata>
<g transform="translate(0.000000,960.000000) scale(0.100000,-0.100000)"
fill="#000000" stroke="none">
<path d="M4958 9595 c-2 -2 -41 -6 -88 -9 -47 -2 -85 -5 -85 -6 0 -1 -22 -3
-50 -5 -61 -4 -141 -13 -175 -20 -14 -3 -45 -7 -70 -10 -25 -3 -52 -7 -60 -10
-8 -2 -35 -7 -60 -10 -25 -4 -65 -11 -90 -17 -73 -16 -83 -18 -120 -24 -19 -3
-38 -8 -43 -11 -4 -2 -20 -7 -35 -10 -69 -13 -245 -63 -330 -94 -30 -11 -57
-17 -62 -14 -5 3 -11 1 -14 -4 -4 -5 -30 -17 -59 -27 -28 -9 -56 -20 -62 -24
-5 -5 -13 -9 -17 -9 -21 -4 -129 -45 -218 -84 -126 -55 -443 -216 -467 -236
-7 -6 -19 -11 -28 -11 -8 0 -15 -4 -15 -8 0 -5 -19 -19 -42 -32 -24 -13 -54
-31 -68 -40 -14 -9 -45 -30 -70 -46 -59 -37 -244 -166 -250 -174 -3 -3 -21
-17 -40 -30 -19 -13 -37 -27 -40 -30 -3 -3 -41 -34 -85 -70 -44 -35 -85 -69
-91 -75 -6 -5 -44 -39 -84 -75 -92 -82 -246 -236 -334 -334 -105 -116 -116
-129 -144 -166 -15 -19 -36 -45 -47 -56 -42 -45 -285 -386 -285 -399 0 -3 -5
-11 -10 -18 -30 -35 -166 -269 -162 -279 1 -5 -2 -8 -7 -8 -5 0 -15 -16 -21
-35 -6 -19 -16 -35 -21 -35 -5 0 -9 -4 -9 -9 0 -4 -27 -65 -59 -133 -33 -69
-63 -137 -67 -151 -3 -15 -10 -27 -15 -27 -5 0 -9 -6 -9 -13 0 -7 -16 -50 -35
-95 -19 -45 -32 -82 -28 -82 3 0 1 -6 -4 -12 -6 -7 -16 -31 -23 -53 -7 -22
-15 -44 -19 -50 -3 -5 -6 -12 -7 -15 0 -3 -8 -30 -18 -60 -46 -143 -96 -323
-91 -329 3 -2 1 -9 -4 -15 -5 -6 -11 -24 -14 -41 -3 -16 -10 -52 -17 -80 -6
-27 -14 -60 -16 -72 -2 -13 -6 -33 -9 -45 -10 -53 -14 -78 -30 -175 -8 -57
-18 -124 -21 -150 -3 -27 -7 -64 -9 -83 -28 -226 -27 -763 1 -985 3 -22 7 -58
9 -80 6 -59 15 -123 25 -180 5 -27 12 -66 15 -85 3 -19 8 -42 10 -50 2 -8 6
-33 10 -55 3 -22 8 -49 12 -60 4 -11 7 -24 8 -30 6 -46 19 -96 26 -101 5 -3 7
-9 4 -13 -2 -5 6 -45 19 -90 13 -45 24 -83 24 -84 1 -1 3 -9 6 -17 2 -8 12
-42 22 -75 9 -33 22 -66 27 -72 5 -7 7 -13 4 -13 -8 0 99 -287 149 -398 49
-109 164 -338 206 -410 26 -46 48 -88 48 -93 0 -5 5 -9 10 -9 6 0 10 -5 10
-11 0 -6 14 -30 30 -54 16 -24 30 -48 30 -54 0 -6 4 -11 9 -11 5 0 11 -8 15
-17 7 -21 25 -50 48 -77 10 -11 20 -28 24 -38 3 -10 10 -18 15 -18 5 0 9 -4 9
-10 0 -5 6 -18 14 -27 8 -10 49 -64 90 -119 71 -94 224 -281 271 -330 168
-177 315 -319 409 -399 27 -22 53 -45 60 -50 6 -6 49 -41 96 -78 47 -37 92
-74 101 -82 9 -8 19 -15 22 -15 4 0 15 -6 24 -14 42 -34 114 -86 119 -86 3 0
12 -6 19 -13 34 -30 43 -35 49 -30 3 4 6 1 6 -5 0 -7 7 -12 15 -12 8 0 15 -4
15 -10 0 -5 6 -10 14 -10 8 0 16 -4 18 -8 3 -7 77 -54 118 -75 8 -4 29 -16 45
-27 17 -10 50 -30 75 -43 74 -39 95 -52 102 -62 4 -5 8 -7 8 -3 0 4 37 -12 83
-35 126 -66 465 -211 512 -221 6 -1 16 -5 22 -9 7 -5 13 -5 13 -1 0 3 6 2 13
-3 6 -5 32 -15 57 -22 25 -7 54 -17 65 -22 52 -22 403 -111 490 -125 17 -2 50
-9 75 -14 56 -12 104 -20 150 -25 19 -3 49 -7 65 -10 17 -4 55 -8 85 -11 30
-2 71 -7 90 -9 204 -27 707 -27 940 -1 19 3 58 7 85 10 76 9 137 17 165 22 14
3 32 6 40 6 15 1 133 22 180 33 14 3 38 8 54 10 38 6 255 61 341 88 39 12 72
22 75 22 3 0 30 9 60 20 30 11 58 20 63 21 4 1 8 2 10 4 1 1 9 3 17 5 85 17
662 276 724 324 6 4 38 23 71 40 33 18 68 40 79 49 10 10 21 16 25 14 3 -1 13
3 22 10 8 7 31 22 50 32 18 11 36 22 39 25 3 3 39 28 80 55 69 45 268 191 280
205 3 4 29 24 58 46 28 21 52 43 52 47 0 4 5 8 10 8 6 0 24 14 40 30 16 17 31
30 34 30 4 0 58 50 186 174 52 50 165 168 240 252 66 73 206 249 283 355 l76
105 -14 45 c-14 47 -101 294 -112 319 -3 8 -7 17 -8 20 -13 44 -33 101 -78
230 -30 85 -80 225 -110 310 -53 151 -103 260 -119 260 -4 0 -8 6 -8 12 0 17
-129 139 -166 158 -16 8 -31 17 -34 20 -5 5 -36 20 -82 40 -22 9 -64 20 -133
36 -53 12 -178 5 -255 -15 -79 -20 -274 -78 -300 -88 -8 -4 -19 -8 -25 -8 -5
-1 -17 -5 -25 -8 -19 -7 -88 -28 -103 -31 -7 -2 -19 -6 -27 -9 -26 -10 -244
-76 -275 -83 -16 -4 -36 -11 -42 -17 -7 -5 -13 -7 -13 -4 0 3 -30 -5 -67 -19
-38 -13 -70 -24 -73 -24 -9 0 -157 -45 -365 -110 -160 -50 -218 -62 -310 -63
-176 -1 -328 64 -453 193 -41 42 -112 148 -112 167 0 7 -4 13 -8 13 -8 0 -29
55 -33 85 0 6 -5 17 -10 26 -7 15 -20 110 -22 164 0 24 10 110 17 145 9 43 58
153 88 197 37 55 90 108 218 217 58 50 112 97 121 105 9 9 36 32 59 51 72 60
127 108 226 195 13 11 42 36 65 55 24 19 55 47 71 63 16 15 33 27 38 27 4 0
10 4 12 9 2 4 41 41 88 81 47 39 109 93 138 118 30 26 59 52 65 57 14 12 211
180 246 210 174 147 265 294 285 461 2 11 6 26 10 32 3 6 2 13 -3 16 -4 3 -5
24 -1 46 4 22 4 40 1 40 -4 0 -8 15 -9 33 -5 71 -48 204 -78 238 -8 8 -14 18
-14 22 0 4 -21 41 -46 84 -26 43 -54 92 -64 108 -129 226 -186 321 -192 323
-4 2 -8 9 -8 16 0 8 -9 25 -21 40 -11 14 -17 26 -13 26 4 0 0 8 -8 18 -9 9
-28 40 -43 67 -14 28 -39 71 -55 97 -15 25 -39 66 -53 90 -42 75 -99 172 -115
198 -9 14 -17 27 -17 30 -1 5 -106 187 -134 230 -8 14 -23 39 -32 55 -9 17
-26 46 -37 65 -32 53 -82 157 -85 177 -1 10 -6 24 -10 31 -5 6 -6 12 -3 12 3
0 1 12 -5 28 -13 34 -13 195 0 241 6 18 10 36 9 40 -2 9 26 81 43 111 4 8 17
32 28 52 30 55 105 138 166 184 112 84 225 125 362 129 145 5 234 -23 419
-130 54 -32 119 -69 144 -83 46 -26 100 -58 135 -79 11 -7 54 -31 95 -55 97
-56 156 -90 281 -163 57 -33 111 -64 121 -70 9 -5 54 -32 100 -59 46 -26 103
-60 128 -73 25 -14 65 -38 90 -53 78 -47 135 -78 144 -78 5 0 12 -5 15 -10 3
-6 33 -25 66 -42 33 -18 65 -37 71 -41 16 -13 105 -60 132 -70 22 -8 22 -7 -7
34 -16 23 -37 52 -47 64 -11 12 -32 39 -49 60 -154 192 -405 450 -586 603 -29
25 -69 59 -88 75 -79 68 -181 145 -190 145 -5 0 -11 3 -13 8 -5 11 -116 92
-126 92 -5 0 -17 9 -27 20 -10 11 -24 20 -31 20 -7 0 -14 3 -16 8 -3 7 -72 55
-113 78 -11 6 -79 45 -152 87 -120 69 -336 178 -438 221 -22 10 -53 23 -70 31
-33 14 -147 59 -155 61 -3 0 -16 5 -30 11 -51 21 -277 95 -345 113 -38 10 -95
25 -126 34 -30 8 -66 17 -80 19 -13 2 -31 7 -39 10 -8 3 -31 9 -50 12 -63 11
-75 13 -110 20 -19 4 -44 9 -55 10 -11 2 -20 4 -20 5 0 1 -11 3 -25 5 -50 6
-116 15 -140 20 -14 3 -45 8 -70 10 -25 3 -67 8 -95 11 -27 3 -77 7 -110 10
-70 6 -622 14 -627 9z"/>
</g>
</svg>
